<svg width="790" height="806" viewBox="0 0 790 806" fill="none" xmlns="http://www.w3.org/2000/svg"><mask id="path-1-inside-1_715_82" fill="white"><rect x="154" y="724" width="164" height="82" rx="20"/></mask><rect x="154" y="724" width="164" height="82" rx="20" fill="hsl(104, 100%, 80%)" stroke="black" stroke-width="50" mask="url(#path-1-inside-1_715_82)"/><mask id="path-2-inside-2_715_82" fill="white"><rect x="501" y="724" width="164" height="82" rx="20"/></mask><rect x="501" y="724" width="164" height="82" rx="20" fill="hsl(104, 100%, 80%)" stroke="black" stroke-width="50" mask="url(#path-2-inside-2_715_82)"/><g filter="url(#filter0_d_715_82)"><rect x="36" width="750" height="750" rx="75" fill="url(#paint0_linear_715_82)" shape-rendering="crispEdges"/><rect x="53.5" y="17.5" width="715" height="715" rx="57.5" stroke="black" stroke-width="35" shape-rendering="crispEdges"/></g><rect x="153.5" y="117.5" width="515" height="515" rx="57.5" fill="url(#paint1_linear_715_82)" stroke="black" stroke-width="35"/><circle cx="411" cy="375" r="132.5" fill="url(#paint2_radial_715_82)" stroke="black" stroke-width="35"/><circle cx="411" cy="375" r="45" fill="black"/><line x1="410.5" y1="362.5" x2="410.5" y2="207.5" stroke="black" stroke-width="25" stroke-linecap="round"/><line x1="12.5" y1="263.5" x2="12.5" y2="118.5" stroke="black" stroke-width="25" stroke-linecap="round"/><line x1="12.5" y1="618.5" x2="12.5" y2="473.5" stroke="black" stroke-width="25" stroke-linecap="round"/><line x1="406.309" y1="387.075" x2="272.075" y2="464.575" stroke="black" stroke-width="25" stroke-linecap="round"/><line x1="549.809" y1="464.575" x2="415.575" y2="387.075" stroke="black" stroke-width="25" stroke-linecap="round"/><ellipse cx="184.5" cy="149.501" rx="87.4419" ry="87.442" transform="rotate(-89.962 184.5 149.501)" fill="#010101"/><line x1="161.798" y1="167.902" x2="186.285" y2="210.316" stroke="hsl(104, 100%, 60%)" stroke-width="4"/><line x1="209.128" y1="165.781" x2="184.64" y2="208.195" stroke="hsl(104, 100%, 60%)" stroke-width="4"/><line x1="138.995" y1="166.807" x2="229.889" y2="166.804" stroke="hsl(104, 100%, 60%)" stroke-width="4"/><path d="M161.243 166.943L137.853 126.429L161.243 85.916H208.024L231.415 126.429L208.024 166.943H161.243Z" stroke="hsl(104, 100%, 60%)" stroke-width="4"/><path d="M161.243 209.322L137.853 168.808L161.243 128.295H208.024L231.415 168.808L208.024 209.322H161.243Z" stroke="hsl(104, 100%, 60%)" stroke-width="4"/><text text-anchor="middle" font-family="Courier New" font-size="30" x="50%" y="86%" fill="hsl(8, 100%, 60%)">CARAPACE PERSIST</text><defs><filter id="filter0_d_715_82" x="32" y="0" width="758" height="758" filterUnits="userSpaceOnUse" color-interpolation-filters="sRGB"><feFlood flood-opacity="0" result="BackgroundImageFix"/><feColorMatrix in="SourceAlpha" type="matrix" values="0 0 0 0 0 0 0 0 0 0 0 0 0 0 0 0 0 0 127 0" result="hardAlpha"/><feOffset dy="4"/><feGaussianBlur stdDeviation="2"/><feComposite in2="hardAlpha" operator="out"/><feColorMatrix type="matrix" values="0 0 0 0 0 0 0 0 0 0 0 0 0 0 0 0 0 0 0.25 0"/><feBlend mode="normal" in2="BackgroundImageFix" result="effect1_dropShadow_715_82"/><feBlend mode="normal" in="SourceGraphic" in2="effect1_dropShadow_715_82" result="shape"/></filter><linearGradient id="paint0_linear_715_82" x1="411" y1="0" x2="411" y2="750" gradientUnits="userSpaceOnUse"><stop stop-color="hsl(352, 100%, 80%)"/><stop offset="1" stop-color="hsl(352, 100%, 80%)" stop-opacity="0.26"/></linearGradient><linearGradient id="paint1_linear_715_82" x1="411" y1="100" x2="411" y2="650" gradientUnits="userSpaceOnUse"><stop offset="0.0654761" stop-color="hsl(305, 100%, 80%)" stop-opacity="0"/><stop offset="0.992559" stop-color="hsl(305, 100%, 80%)"/></linearGradient><radialGradient id="paint2_radial_715_82" cx="0" cy="0" r="1" gradientUnits="userSpaceOnUse" gradientTransform="translate(411 375) rotate(90) scale(150)"><stop offset="0.258184" stop-color="hsl(2, 100%, 80%)" stop-opacity="0"/><stop offset="0.950893" stop-color="hsl(2, 100%, 80%)"/></radialGradient></defs></svg>